# xmcd
#
# Track frame offsets:
#	150
#	21316
#	38667
#	64812
#	81083
#	91367
#	109527
#	125970
#	146369
#	158775
#	175430
#	188232
#	206050
#	225020
#	244898
#	260013
#	277674
#	297246
#
# Disc length: 4234 seconds
#
# Revision: 1
# Processed by: cddbd v1.5.2PL0 Copyright (c) Steve Scherf et al.
# Submitted via: audiograbber 1.83.01
#
DISCID=fc108812
DTITLE=Rozni - Polskie Country vol.1
DYEAR=2007
DGENRE=Country
TTITLE0=Cezary Makiewicz - Wszystkie drogi prowadza do Mragowa
TTITLE1=Krzysztof Gablonski - Zegnaj Kacha
TTITLE2=Colorado Band - O co biega, co jest grane
TTITLE3=Mariusz Kalaga - To do ciebie przyszedl blues
TTITLE4=Band - Polski cajun - T
TTITLE5=Pawel Baczkowski - Poki na ziemi masz swoje miejsce
TTITLE6=Lonstar - Radio
TTITLE7=Johnny Walker - Amerykanin w Gizycku
TTITLE8=Fair Play - Bo milsc wszystko zmienia
TTITLE9=Kolt - Tylko Ty
TTITLE10=Zayazd - Hej stary!
TTITLE11=Tomasz Szwed - Poradnik poczatkujacego kierowcy
TTITLE12=Whiskey River - Umowmy sie na wiosne
TTITLE13=Coach - Ballada o spelnionym snie
TTITLE14=Magda Aniol - Ostatni raz
TTITLE15=Parkway - I'm gonna be Somebody
TTITLE16=Krzysztow Gablonski - Taki sam jak ty
TTITLE17=Tomasz Szwed - Gdy do Ciebie jade
EXTD=YEAR: 2007
EXTT0=
EXTT1=
EXTT2=
EXTT3=
EXTT4=
EXTT5=
EXTT6=
EXTT7=
EXTT8=
EXTT9=
EXTT10=
EXTT11=
EXTT12=
EXTT13=
EXTT14=
EXTT15=
EXTT16=
EXTT17=
PLAYORDER=
